:SAMPLES-PER-SECOND 30
:FRAME-RANGE 1-1700
:FULLY-SPECIFIED
:DEGREES
1541
root  76.8385 38.8168 66.1623 2.26389 6.55686 3.02411
RightUpLeg  -7.59365 -2.79276 3.56376
RightLeg  24.0109 -0.913045 -0.672647
RightFoot  -19.6856 -0.248604 -1.5826
RightToes  6.35937e-011 1.2921e-014 -6.02303e-014
Spine  1.33811 1.16016 6.11325
Spine1  4.67299 1.81971 -2.20187
HEad  8.23754 -6.34899 -1.21818
LeftShoulder1  1.42649 -3.83951 -13.2088
LeftArm  -1.47688 -7.2125 -55.0174
LeftForeArm  44.1899 7.60258 -12.9064
LeftHand  -0.0266067 5.72397 1.1487
RightShoulder  2.08735 3.85379 23.0133
RightArm  -14.9552 21.1585 59.8355
RightForeArm  69.5433 -5.89612 7.0082
RightHand  0.285232 -7.18344 -19.2723
LeftUpLeg  -23.0676 -5.41403 0.206992
LeftLeg  41.1381 10.522 10.0722
LeftFoot  -9.07396 0.134158 -4.02945
LeftToes  -1.9349e-011 5.45182e-011 1.33515e-010
1542
root  76.7922 38.8928 67.7258 2.45248 3.77519 3.39548
RightUpLeg  -4.29239 -2.84461 2.97251
RightLeg  22.0107 1.33842 0.373446
RightFoot  -20.5378 -0.254478 -1.43646
RightToes  6.35937e-011 1.2921e-014 -6.02303e-014
Spine  0.977931 2.05504 6.80176
Spine1  5.28885 2.86363 -3.20281
HEad  8.30359 -4.70625 -3.31643
LeftShoulder1  1.35817 -3.41096 -13.4906
LeftArm  -2.02026 -5.3145 -53.5218
LeftForeArm  44.3528 7.59784 -12.8699
LeftHand  -0.0276715 5.735 0.876457
RightShoulder  2.19131 4.58716 21.5438
RightArm  -10.9408 27.5846 63.2934
RightForeArm  68.735 -5.89699 8.03042
RightHand  0.295077 -7.23539 -19.3433
LeftUpLeg  -25.0596 -5.52354 -0.710592
LeftLeg  32.0944 11.3587 7.92597
LeftFoot  -7.86073 0.191735 -4.7582
LeftToes  -1.9349e-011 5.45182e-011 1.33515e-010
1543
root  76.735 38.8862 69.3424 2.62732 1.15126 3.733
RightUpLeg  -0.776647 -2.38514 2.29649
RightLeg  19.9124 3.64116 1.23281
RightFoot  -21.2775 -0.37046 -2.60533
RightToes  6.35937e-011 1.2921e-014 -6.02303e-014
Spine  0.285363 2.55288 7.56944
Spine1  6.1202 3.65173 -4.7355
HEad  8.58531 -1.92008 -4.81479
LeftShoulder1  1.18898 -2.79865 -12.6684
LeftArm  -2.84278 -2.67827 -53.1068
LeftForeArm  46.0328 7.54533 -12.7155
LeftHand  -0.0250612 6.13861 1.10117
RightShoulder  2.33804 5.34606 20.7645
RightArm  -7.85903 33.7408 67.2276
RightForeArm  68.9928 -6.11911 8.26389
RightHand  0.289039 -7.15525 -19.7733
LeftUpLeg  -26.0706 -6.14082 -1.29669
LeftLeg  21.9302 12.6562 5.86713
LeftFoot  -7.33807 0.21197 -4.80488
LeftToes  -1.9349e-011 5.45182e-011 1.33515e-010
1544
root  76.659 38.7963 71.0358 2.89609 -0.813987 3.96716
RightUpLeg  2.77571 -2.22093 1.71372
RightLeg  17.7494 5.5545 1.63115
RightFoot  -22.159 -0.41154 -2.7623
RightToes  6.35937e-011 1.2921e-014 -6.02303e-014
Spine  -0.87299 3.11344 7.45562
Spine1  7.17437 4.21055 -4.90692
HEad  9.00135 0.580802 -6.02332
LeftShoulder1  1.11296 -2.52768 -12.227
LeftArm  -1.97175 -0.43449 -53.0752
LeftForeArm  47.0853 7.47352 -13.2424
LeftHand  -0.0117477 6.85704 1.83981
RightShoulder  2.35283 5.69043 19.8333
RightArm  -5.57194 38.3614 70.9017
RightForeArm  69.2847 -6.06787 8.0139
RightHand  0.274089 -7.08466 -19.5917
LeftUpLeg  -26.5106 -5.53695 -2.48063
LeftLeg  11.6155 13.4713 4.0701
LeftFoot  -6.18449 0.236346 -4.42368
LeftToes  -1.9349e-011 5.45182e-011 1.33515e-010
1545
root  76.5882 38.6165 72.7666 3.28049 -2.85312 4.01831
RightUpLeg  5.63275 -1.92626 1.13303
RightLeg  16.821 7.54052 2.07461
RightFoot  -23.0503 -0.430177 -2.67322
RightToes  6.35937e-011 1.2921e-014 -6.02303e-014
Spine  -1.73839 3.7823 7.76716
Spine1  7.71526 5.04422 -5.62812
HEad  10.0432 2.66879 -6.23151
LeftShoulder1  1.04171 -2.22155 -11.9689
LeftArm  -1.86839 1.79377 -53.1403
LeftForeArm  49.0127 7.34074 -13.4715
LeftHand  -0.0102846 7.30969 1.65156
RightShoulder  2.33321 5.93043 18.8725
RightArm  -3.974 40.9564 73.9534
RightForeArm  67.9064 -5.29518 7.8188
RightHand  0.281104 -7.15186 -19.3372
LeftUpLeg  -26.7321 -3.70408 -3.6747
LeftLeg  2.46216 15.6007 1.64592
LeftFoot  -5.2099 0.318874 -5.3686
LeftToes  -1.9349e-011 5.45182e-011 1.33515e-010
1546
root  76.5392 38.3475 74.5257 3.48688 -5.17879 3.78552
RightUpLeg  7.78845 -0.192393 0.880342
RightLeg  17.7378 8.57585 2.67511
RightFoot  -23.9464 -0.388374 -2.04805
RightToes  6.35937e-011 1.2921e-014 -6.02303e-014
Spine  -2.21728 4.41169 8.79118
Spine1  8.29857 6.07093 -7.13615
HEad  10.2585 5.04092 -5.95828
LeftShoulder1  0.958635 -1.79012 -11.929
LeftArm  -2.18278 3.93025 -53.0004
LeftForeArm  51.1689 7.22779 -13.5279
LeftHand  -0.016749 7.54431 1.22213
RightShoulder  2.31164 6.08791 18.1663
RightArm  -4.90087 42.0559 77.0507
RightForeArm  67.9455 -4.13557 6.38515
RightHand  0.164527 -6.45396 -19.2614
LeftUpLeg  -27.0506 -4.24913 -3.86868
LeftLeg  -2.84288 19.7445 0.660419
LeftFoot  -6.17027 0.248787 -4.68878
LeftToes  -1.9349e-011 5.45182e-011 1.33515e-010
1547
root  76.4576 37.9465 76.3621 3.3414 -7.35271 3.26801
RightUpLeg  9.14197 2.57957 1.30445
RightLeg  21.4766 8.67835 3.53651
RightFoot  -24.8686 -0.274705 -0.895637
RightToes  6.35937e-011 1.2921e-014 -6.02303e-014
Spine  -2.45934 5.03881 9.47771
Spine1  8.58441 6.85281 -7.9179
HEad  9.96813 7.01896 -5.40763
LeftShoulder1  1.03729 -2.10205 -12.3389
LeftArm  -3.02338 6.39196 -52.632
LeftForeArm  52.3383 7.19467 -13.4726
LeftHand  -0.0226788 7.61674 0.916169
RightShoulder  2.34822 6.28253 18.0407
RightArm  -4.77503 42.0403 78.324
RightForeArm  66.0668 -3.01801 6.32872
RightHand  0.124807 -6.21023 -19.3226
LeftUpLeg  -27.9527 -3.77188 -3.90414
LeftLeg  -0.897008 20.1962 0.728201
LeftFoot  -7.72446 0.219219 -5.47467
LeftToes  -1.9349e-011 5.45182e-011 1.33515e-010
